# Blender 4.2.3 LTS
# www.blender.org
o Cube
v 0.707107 -0.000000 1.000000
v 0.000000 1.414214 1.000000
v -0.000000 -1.414214 1.000000
v -0.707107 0.000000 1.000000
v 0.238647 -0.000000 -1.000000
v 0.000000 0.636396 -1.000000
v -0.000000 -0.636396 -1.000000
v -0.238647 0.000000 -1.000000
v 0.000000 0.000000 2.000000
v 0.124296 -0.000000 -2.000000
v 0.000000 1.060660 -2.500000
v -0.000000 -1.060660 -2.500000
v -0.124296 0.000000 -2.000000
v 0.485987 -1.108617 1.130308
v 0.685783 -0.553633 1.081729
v 0.685783 0.553633 1.081728
v 0.485987 1.108617 1.130308
v -0.485987 1.108617 1.130308
v -0.685783 0.553633 1.081729
v -0.685783 -0.553633 1.081728
v -0.485987 -1.108617 1.130308
v -0.000000 -0.963795 -0.366724
v -0.000000 -1.328220 0.279512
v -0.658506 0.000000 0.314484
v -0.419731 0.000000 -0.342738
v -0.238480 -0.231982 -1.045222
v -0.175447 -0.477749 -1.084238
v 0.238480 -0.231982 -1.045222
v 0.175447 -0.477749 -1.084238
v -0.238480 0.231982 -1.045222
v -0.175447 0.477749 -1.084238
v 0.175447 0.477749 -1.084238
v 0.238480 0.231982 -1.045222
v 0.658506 -0.000000 0.314484
v 0.419731 -0.000000 -0.342738
v 0.000000 0.963795 -0.366723
v 0.000000 1.328220 0.279512
v -0.407192 0.000000 1.815329
v -0.620301 0.000000 1.421403
v 0.620300 -0.000000 1.421403
v 0.407192 -0.000000 1.815329
v -0.000000 -1.122427 1.548721
v -0.000000 -0.606478 1.891649
v 0.000000 1.122427 1.548721
v 0.000000 0.606478 1.891649
v -0.118046 -0.291522 -2.256383
v -0.136849 -0.654156 -2.569021
v 0.118046 -0.291522 -2.256383
v 0.136850 -0.654156 -2.569021
v -0.118046 0.291523 -2.256383
v -0.136850 0.654156 -2.569021
v 0.136850 0.654156 -2.569021
v 0.118046 0.291523 -2.256383
v 0.237234 -0.000000 -1.335526
v 0.234926 -0.000000 -1.678968
v 0.000000 1.084840 -1.984056
v -0.000000 0.750784 -1.485108
v 0.000000 -0.750784 -1.485108
v 0.000000 -1.084840 -1.984056
v -0.234923 0.000000 -1.678968
v -0.237240 0.000000 -1.335527
v -0.047921 0.000000 -2.057901
v 0.047921 -0.000000 -2.057901
v 0.166766 -0.241958 -2.378189
v -0.173957 -0.541001 -1.564126
v -0.239215 -0.730781 -2.083492
v -0.232327 -0.262748 -1.446199
v -0.263754 -0.312895 -1.871514
v -0.232327 0.262749 -1.446199
v -0.263754 0.312895 -1.871514
v -0.173957 0.541001 -1.564126
v -0.239215 0.730781 -2.083492
v 0.232327 -0.262748 -1.446199
v 0.263754 -0.312895 -1.871514
v 0.173957 -0.541001 -1.564126
v 0.239215 -0.730781 -2.083492
v 0.166766 0.241958 -2.378189
v 0.433834 0.612059 1.639409
v -0.433835 -0.612059 1.639409
v 0.433834 -0.612059 1.639409
v -0.433288 0.369646 -0.379379
v -0.333638 0.756112 -0.415348
v -0.659331 0.527534 0.331001
v -0.486124 1.060234 0.332343
v 0.486124 -1.060234 0.332343
v 0.659331 -0.527534 0.331001
v 0.333638 -0.756112 -0.415348
v 0.433288 -0.369646 -0.379379
v 0.455100 0.370519 -0.360146
v 0.683807 0.515780 0.341238
v 0.324013 0.777029 -0.384712
v 0.473107 1.077725 0.342278
v 0.173957 0.541001 -1.564126
v 0.239215 0.730781 -2.083492
v 0.232327 0.262749 -1.446199
v 0.263754 0.312895 -1.871514
v -0.473107 -1.077724 0.342279
v -0.324016 -0.777040 -0.384714
v -0.683807 -0.515779 0.341238
v -0.455092 -0.370515 -0.360143
v -0.433834 0.612059 1.639409
vn 0.9977 -0.0066 0.0678
vn -0.0022 0.9891 0.1474
vn 0.0022 -0.9891 0.1474
vn -0.9977 0.0066 0.0678
vn 0.9874 -0.0076 -0.1579
vn 0.0006 0.9610 -0.2765
vn -0.0006 -0.9610 -0.2765
vn -0.9874 0.0076 -0.1579
vn -0.0000 -0.0000 1.0000
vn 0.8707 -0.0000 -0.4918
vn -0.0000 0.8435 -0.5371
vn -0.0000 -0.8435 -0.5371
vn -0.8707 -0.0000 -0.4918
vn 0.7339 -0.6337 0.2446
vn 0.9707 -0.1835 0.1554
vn 0.9694 0.1851 0.1612
vn 0.7307 0.6363 0.2473
vn -0.7339 0.6337 0.2446
vn -0.9707 0.1835 0.1554
vn -0.9694 -0.1851 0.1612
vn -0.7307 -0.6363 0.2473
vn 0.0006 -0.8794 -0.4760
vn 0.0027 -0.9583 -0.2857
vn -0.9821 0.0163 -0.1875
vn -0.9549 0.0169 -0.2965
vn -0.9842 -0.0926 -0.1512
vn -0.8667 -0.4817 -0.1298
vn 0.9853 -0.0887 -0.1462
vn 0.8712 -0.4740 -0.1283
vn -0.9853 0.0887 -0.1462
vn -0.8712 0.4740 -0.1283
vn 0.8667 0.4817 -0.1298
vn 0.9842 0.0926 -0.1512
vn 0.9821 -0.0163 -0.1875
vn 0.9549 -0.0169 -0.2965
vn -0.0006 0.8794 -0.4760
vn -0.0027 0.9583 -0.2857
vn -0.6667 -0.0000 0.7453
vn -0.9307 -0.0000 0.3658
vn 0.9307 -0.0000 0.3658
vn 0.6667 -0.0000 0.7453
vn -0.0000 -0.7308 0.6826
vn -0.0000 -0.3733 0.9277
vn -0.0000 0.7308 0.6826
vn -0.0000 0.3733 0.9277
vn -0.7296 0.4326 -0.5297
vn -0.6268 0.0326 -0.7785
vn 0.9971 0.0764 0.0031
vn 0.6211 -0.0080 -0.7837
vn -0.7296 -0.4326 -0.5297
vn -0.6268 -0.0326 -0.7785
vn 0.6211 0.0080 -0.7837
vn 0.9971 -0.0764 0.0031
vn 1.0000 -0.0000 0.0073
vn 0.9962 -0.0000 -0.0870
vn -0.0000 0.9843 0.1765
vn -0.0000 0.9361 0.3517
vn -0.0000 -0.9361 0.3517
vn -0.0000 -0.9843 0.1765
vn -0.9962 -0.0000 -0.0870
vn -1.0000 -0.0000 0.0073
vn -0.4499 -0.0000 -0.8931
vn 0.4805 -0.0000 -0.8770
vn 0.6952 0.5218 -0.4945
vn -0.9069 -0.3874 0.1656
vn -0.9655 -0.2593 -0.0229
vn -0.9940 -0.1010 0.0410
vn -0.9933 0.0600 -0.0991
vn -0.9940 0.1010 0.0410
vn -0.9933 -0.0600 -0.0991
vn -0.9069 0.3874 0.1656
vn -0.9655 0.2593 -0.0229
vn 0.9940 -0.1010 0.0410
vn 0.9933 0.0600 -0.0991
vn 0.9069 -0.3874 0.1656
vn 0.9655 -0.2593 -0.0229
vn 0.6952 -0.5218 -0.4945
vn 0.7017 0.3240 0.6345
vn -0.7017 -0.3240 0.6345
vn 0.7017 -0.3240 0.6345
vn -0.9467 0.0960 -0.3074
vn -0.7389 0.5456 -0.3954
vn -0.9711 0.1561 -0.1807
vn -0.7582 0.6145 -0.2182
vn 0.7582 -0.6145 -0.2182
vn 0.9711 -0.1561 -0.1807
vn 0.7389 -0.5456 -0.3954
vn 0.9467 -0.0960 -0.3074
vn 0.9428 0.1024 -0.3171
vn 0.9712 0.1589 -0.1774
vn 0.7216 0.5658 -0.3989
vn 0.7442 0.6318 -0.2166
vn 0.9069 0.3874 0.1656
vn 0.9655 0.2593 -0.0229
vn 0.9940 0.1010 0.0410
vn 0.9933 -0.0600 -0.0991
vn -0.7442 -0.6318 -0.2166
vn -0.7216 -0.5658 -0.3989
vn -0.9712 -0.1589 -0.1774
vn -0.9428 -0.1024 -0.3171
vn -0.7017 0.3240 0.6345
vt 0.625000 0.000000
vt 0.625000 0.083333
vt 0.583333 0.041667
vt 0.541667 0.416667
vt 0.625000 0.416667
vt 0.625000 0.500000
vt 0.541667 0.500000
vt 0.458333 0.750000
vt 0.375000 0.750000
vt 0.541667 0.916667
vt 0.625000 0.916667
vt 0.625000 1.000000
vt 0.541667 1.000000
vt 0.291667 0.666667
vt 0.375000 0.666667
vt 0.291667 0.750000
vt 0.791667 0.666667
vt 0.875000 0.666667
vt 0.875000 0.750000
vt 0.791667 0.750000
vt 0.375000 0.250000
vt 0.375000 0.166667
vt 0.416667 0.208333
vt 0.625000 0.250000
vt 0.541667 0.250000
vt 0.583333 0.208333
vt 0.375000 0.000000
vt 0.458333 0.000000
vt 0.416667 0.041667
vt 0.625000 0.583333
vt 0.541667 0.583333
vt 0.375000 0.583333
vt 0.375000 0.500000
vt 0.625000 0.666667
vt 0.625000 0.750000
vt 0.458333 0.500000
vt 0.458333 0.666667
vt 0.458333 0.583333
vt 0.541667 0.666667
vt 0.541667 0.750000
vt 0.458333 0.083333
vt 0.541667 0.083333
vt 0.500000 0.125000
vt 0.500000 0.041667
vt 0.541667 0.000000
vt 0.541667 0.166667
vt 0.458333 0.166667
vt 0.500000 0.208333
vt 0.458333 0.250000
vt 0.416667 0.125000
vt 0.375000 0.083333
vt 0.708333 0.666667
vt 0.708333 0.750000
vt 0.708333 0.500000
vt 0.708333 0.583333
vt 0.791667 0.500000
vt 0.791667 0.583333
vt 0.875000 0.500000
vt 0.875000 0.583333
vt 0.125000 0.666667
vt 0.208333 0.666667
vt 0.208333 0.750000
vt 0.125000 0.750000
vt 0.125000 0.500000
vt 0.208333 0.500000
vt 0.208333 0.583333
vt 0.125000 0.583333
vt 0.291667 0.500000
vt 0.291667 0.583333
vt 0.375000 0.916667
vt 0.458333 0.916667
vt 0.458333 1.000000
vt 0.375000 1.000000
vt 0.458333 0.833333
vt 0.375000 0.833333
vt 0.541667 0.833333
vt 0.625000 0.833333
vt 0.375000 0.416667
vt 0.458333 0.416667
vt 0.458333 0.333333
vt 0.375000 0.333333
vt 0.541667 0.333333
vt 0.625000 0.333333
vt 0.583333 0.125000
vt 0.625000 0.166667
s 1
f 2/1/2 18/2/18 44/3/44
f 100/4/100 25/5/25 8/6/8 26/7/26
f 96/8/96 55/9/55 10/9/10 53/8/53
f 92/10/92 37/11/37 2/12/2 17/13/17
f 88/14/88 28/15/28 5/9/5 35/16/35
f 84/17/84 18/18/18 2/19/2 37/20/37
f 3/21/3 14/22/14 42/23/42
f 4/24/4 20/25/20 39/26/39
f 1/27/1 16/28/16 40/29/40
f 13/6/13 50/30/50 62/31/62
f 76/32/76 59/33/59 12/33/12 49/32/49
f 72/34/72 56/35/56 11/35/11 51/34/51
f 68/7/68 60/6/60 13/6/13 46/7/46
f 12/33/12 47/36/47 49/32/49
f 48/15/48 63/37/63 10/9/10
f 49/32/49 64/38/64 48/15/48
f 48/15/48 64/38/64 63/37/63
f 64/38/64 62/31/62 63/37/63
f 49/32/49 47/36/47 64/38/64
f 47/36/47 46/7/46 64/38/64
f 64/38/64 46/7/46 62/31/62
f 46/7/46 13/6/13 62/31/62
f 59/33/59 66/36/66 47/36/47 12/33/12
f 66/36/66 68/7/68 46/7/46 47/36/47
f 7/33/7 27/36/27 65/36/65 58/33/58
f 58/33/58 65/36/65 66/36/66 59/33/59
f 27/36/27 26/7/26 67/7/67 65/36/65
f 65/36/65 67/7/67 68/7/68 66/36/66
f 26/7/26 8/6/8 61/6/61 67/7/67
f 67/7/67 61/6/61 60/6/60 68/7/68
f 60/6/60 70/30/70 50/30/50 13/6/13
f 70/30/70 72/34/72 51/34/51 50/30/50
f 8/6/8 30/30/30 69/30/69 61/6/61
f 61/6/61 69/30/69 70/30/70 60/6/60
f 30/30/30 31/34/31 71/34/71 69/30/69
f 69/30/69 71/34/71 72/34/72 70/30/70
f 31/34/31 6/35/6 57/35/57 71/34/71
f 71/34/71 57/35/57 56/35/56 72/34/72
f 55/9/55 74/15/74 48/15/48 10/9/10
f 74/15/74 76/32/76 49/32/49 48/15/48
f 5/9/5 28/15/28 73/15/73 54/9/54
f 54/9/54 73/15/73 74/15/74 55/9/55
f 28/15/28 29/32/29 75/32/75 73/15/73
f 73/15/73 75/32/75 76/32/76 74/15/74
f 29/32/29 7/33/7 58/33/58 75/32/75
f 75/32/75 58/33/58 59/33/59 76/32/76
f 63/37/63 53/8/53 10/9/10
f 62/31/62 77/39/77 63/37/63
f 63/37/63 77/39/77 53/8/53
f 77/39/77 52/40/52 53/8/53
f 62/31/62 50/30/50 77/39/77
f 50/30/50 51/34/51 77/39/77
f 77/39/77 51/34/51 52/40/52
f 51/34/51 11/35/11 52/40/52
f 41/41/41 45/42/45 9/43/9
f 40/29/40 78/44/78 41/41/41
f 41/41/41 78/44/78 45/42/45
f 78/44/78 44/3/44 45/42/45
f 40/29/40 16/28/16 78/44/78
f 16/28/16 17/45/17 78/44/78
f 78/44/78 17/45/17 44/3/44
f 17/45/17 2/1/2 44/3/44
f 38/46/38 43/47/43 9/43/9
f 39/26/39 79/48/79 38/46/38
f 38/46/38 79/48/79 43/47/43
f 79/48/79 42/23/42 43/47/43
f 39/26/39 20/25/20 79/48/79
f 20/25/20 21/49/21 79/48/79
f 79/48/79 21/49/21 42/23/42
f 21/49/21 3/21/3 42/23/42
f 43/47/43 41/41/41 9/43/9
f 42/23/42 80/50/80 43/47/43
f 43/47/43 80/50/80 41/41/41
f 80/50/80 40/29/40 41/41/41
f 42/23/42 14/22/14 80/50/80
f 14/22/14 15/51/15 80/50/80
f 80/50/80 15/51/15 40/29/40
f 15/51/15 1/27/1 40/29/40
f 31/34/31 82/52/82 36/53/36 6/35/6
f 82/52/82 84/17/84 37/20/37 36/53/36
f 8/6/8 25/54/25 81/55/81 30/30/30
f 30/30/30 81/55/81 82/52/82 31/34/31
f 25/54/25 24/56/24 83/57/83 81/55/81
f 81/55/81 83/57/83 84/17/84 82/52/82
f 24/56/24 4/58/4 19/59/19 83/57/83
f 83/57/83 19/59/19 18/18/18 84/17/84
f 15/60/15 86/61/86 34/62/34 1/63/1
f 86/61/86 88/14/88 35/16/35 34/62/34
f 3/64/3 23/65/23 85/66/85 14/67/14
f 14/67/14 85/66/85 86/61/86 15/60/15
f 23/65/23 22/68/22 87/69/87 85/66/85
f 85/66/85 87/69/87 88/14/88 86/61/86
f 22/68/22 7/33/7 29/32/29 87/69/87
f 87/69/87 29/32/29 28/15/28 88/14/88
f 34/70/34 90/71/90 16/72/16 1/73/1
f 90/71/90 92/10/92 17/13/17 16/72/16
f 5/9/5 33/8/33 89/74/89 35/75/35
f 35/75/35 89/74/89 90/71/90 34/70/34
f 33/8/33 32/40/32 91/76/91 89/74/89
f 89/74/89 91/76/91 92/10/92 90/71/90
f 32/40/32 6/35/6 36/77/36 91/76/91
f 91/76/91 36/77/36 37/11/37 92/10/92
f 56/35/56 94/40/94 52/40/52 11/35/11
f 94/40/94 96/8/96 53/8/53 52/40/52
f 6/35/6 32/40/32 93/40/93 57/35/57
f 57/35/57 93/40/93 94/40/94 56/35/56
f 32/40/32 33/8/33 95/8/95 93/40/93
f 93/40/93 95/8/95 96/8/96 94/40/94
f 33/8/33 5/9/5 54/9/54 95/8/95
f 95/8/95 54/9/54 55/9/55 96/8/96
f 22/78/22 98/79/98 27/36/27 7/33/7
f 98/79/98 100/4/100 26/7/26 27/36/27
f 3/21/3 21/49/21 97/80/97 23/81/23
f 23/81/23 97/80/97 98/79/98 22/78/22
f 21/49/21 20/25/20 99/82/99 97/80/97
f 97/80/97 99/82/99 100/4/100 98/79/98
f 20/25/20 4/24/4 24/83/24 99/82/99
f 99/82/99 24/83/24 25/5/25 100/4/100
f 45/42/45 38/46/38 9/43/9
f 44/3/44 101/84/101 45/42/45
f 45/42/45 101/84/101 38/46/38
f 101/84/101 39/26/39 38/46/38
f 44/3/44 18/2/18 101/84/101
f 18/2/18 19/85/19 101/84/101
f 101/84/101 19/85/19 39/26/39
f 19/85/19 4/24/4 39/26/39
